<mxfile host="app.diagrams.net" modified="2021-04-09T13:52:08.968Z" agent="5.0 (Windows NT 10.0; Win64; x64) AppleWebKit/537.36 (KHTML, like Gecko) Chrome/89.0.4389.90 Safari/537.36" etag="Tl0gWcpIof5-Bp_O3XxE" version="14.5.1" type="github">
  <diagram id="YSlZazGuL2Ad1kEJ1YM0" name="第 1 页">
    <mxGraphModel dx="1422" dy="706" grid="0" gridSize="10" guides="1" tooltips="1" connect="1" arrows="1" fold="1" page="1" pageScale="1" pageWidth="827" pageHeight="1169" math="0" shadow="1">
      <root>
        <mxCell id="0" />
        <mxCell id="1" parent="0" />
        <mxCell id="4ucDftV_e2zZ3TF2XLAY-2" style="edgeStyle=orthogonalEdgeStyle;rounded=0;orthogonalLoop=1;jettySize=auto;html=1;exitX=0;exitY=1;exitDx=0;exitDy=0;endArrow=none;endFill=0;" edge="1" parent="1" source="4ucDftV_e2zZ3TF2XLAY-8">
          <mxGeometry relative="1" as="geometry">
            <mxPoint x="160" y="180" as="targetPoint" />
          </mxGeometry>
        </mxCell>
        <mxCell id="4ucDftV_e2zZ3TF2XLAY-34" value="时间" style="text;html=1;align=center;verticalAlign=middle;resizable=0;points=[];autosize=1;" vertex="1" parent="1">
          <mxGeometry x="263" y="203" width="40" height="20" as="geometry" />
        </mxCell>
        <mxCell id="4ucDftV_e2zZ3TF2XLAY-36" value="" style="endArrow=none;html=1;" edge="1" parent="1">
          <mxGeometry width="50" height="50" relative="1" as="geometry">
            <mxPoint x="160" y="160" as="sourcePoint" />
            <mxPoint x="440" y="160" as="targetPoint" />
          </mxGeometry>
        </mxCell>
        <mxCell id="4ucDftV_e2zZ3TF2XLAY-38" value="80" style="text;html=1;align=center;verticalAlign=middle;resizable=0;points=[];autosize=1;" vertex="1" parent="1">
          <mxGeometry x="304" y="180" width="30" height="20" as="geometry" />
        </mxCell>
        <mxCell id="4ucDftV_e2zZ3TF2XLAY-39" value="100" style="text;html=1;align=center;verticalAlign=middle;resizable=0;points=[];autosize=1;" vertex="1" parent="1">
          <mxGeometry x="340" y="180" width="40" height="20" as="geometry" />
        </mxCell>
        <mxCell id="4ucDftV_e2zZ3TF2XLAY-40" value="120" style="text;html=1;align=center;verticalAlign=middle;resizable=0;points=[];autosize=1;" vertex="1" parent="1">
          <mxGeometry x="380" y="180" width="40" height="20" as="geometry" />
        </mxCell>
        <mxCell id="4ucDftV_e2zZ3TF2XLAY-41" value="FIFO 简单例子" style="text;html=1;align=center;verticalAlign=middle;resizable=0;points=[];autosize=1;" vertex="1" parent="1">
          <mxGeometry x="238" y="230" width="90" height="20" as="geometry" />
        </mxCell>
        <mxCell id="4ucDftV_e2zZ3TF2XLAY-15" value="0" style="text;html=1;align=center;verticalAlign=middle;resizable=0;points=[];autosize=1;" vertex="1" parent="1">
          <mxGeometry x="150" y="180" width="20" height="20" as="geometry" />
        </mxCell>
        <mxCell id="4ucDftV_e2zZ3TF2XLAY-16" value="20" style="text;html=1;align=center;verticalAlign=middle;resizable=0;points=[];autosize=1;" vertex="1" parent="1">
          <mxGeometry x="189" y="181" width="23" height="18" as="geometry" />
        </mxCell>
        <mxCell id="4ucDftV_e2zZ3TF2XLAY-17" value="40" style="text;html=1;align=center;verticalAlign=middle;resizable=0;points=[];autosize=1;" vertex="1" parent="1">
          <mxGeometry x="229" y="181" width="23" height="18" as="geometry" />
        </mxCell>
        <mxCell id="4ucDftV_e2zZ3TF2XLAY-18" value="60" style="text;html=1;align=center;verticalAlign=middle;resizable=0;points=[];autosize=1;" vertex="1" parent="1">
          <mxGeometry x="265" y="180" width="30" height="20" as="geometry" />
        </mxCell>
        <mxCell id="4ucDftV_e2zZ3TF2XLAY-8" value="" style="rounded=0;whiteSpace=wrap;html=1;fillColor=#d5e8d4;strokeColor=#82b366;" vertex="1" parent="1">
          <mxGeometry x="160" y="80" width="21" height="80" as="geometry" />
        </mxCell>
        <mxCell id="4ucDftV_e2zZ3TF2XLAY-9" value="" style="rounded=0;whiteSpace=wrap;html=1;fillColor=#e1d5e7;strokeColor=#9673a6;" vertex="1" parent="1">
          <mxGeometry x="181" y="80" width="19" height="80" as="geometry" />
        </mxCell>
        <mxCell id="4ucDftV_e2zZ3TF2XLAY-10" value="A" style="text;html=1;align=center;verticalAlign=middle;resizable=0;points=[];autosize=1;" vertex="1" parent="1">
          <mxGeometry x="161" y="57" width="20" height="20" as="geometry" />
        </mxCell>
        <mxCell id="4ucDftV_e2zZ3TF2XLAY-11" value="B" style="text;html=1;align=center;verticalAlign=middle;resizable=0;points=[];autosize=1;" vertex="1" parent="1">
          <mxGeometry x="185" y="57" width="20" height="20" as="geometry" />
        </mxCell>
        <mxCell id="4ucDftV_e2zZ3TF2XLAY-12" value="" style="group" vertex="1" connectable="0" parent="1">
          <mxGeometry x="191" y="57" width="40" height="23" as="geometry" />
        </mxCell>
        <mxCell id="4ucDftV_e2zZ3TF2XLAY-14" value="C" style="text;html=1;align=center;verticalAlign=middle;resizable=0;points=[];autosize=1;" vertex="1" parent="4ucDftV_e2zZ3TF2XLAY-12">
          <mxGeometry x="10" width="20" height="20" as="geometry" />
        </mxCell>
        <mxCell id="4ucDftV_e2zZ3TF2XLAY-13" value="" style="rounded=0;whiteSpace=wrap;html=1;fillColor=#f8cecc;strokeColor=#b85450;" vertex="1" parent="1">
          <mxGeometry x="200" y="80" width="19" height="80" as="geometry" />
        </mxCell>
        <mxCell id="4ucDftV_e2zZ3TF2XLAY-42" style="edgeStyle=orthogonalEdgeStyle;rounded=0;orthogonalLoop=1;jettySize=auto;html=1;exitX=0;exitY=1;exitDx=0;exitDy=0;endArrow=none;endFill=0;" edge="1" parent="1">
          <mxGeometry relative="1" as="geometry">
            <mxPoint x="200" y="181" as="targetPoint" />
            <mxPoint x="200" y="161" as="sourcePoint" />
          </mxGeometry>
        </mxCell>
        <mxCell id="4ucDftV_e2zZ3TF2XLAY-43" style="edgeStyle=orthogonalEdgeStyle;rounded=0;orthogonalLoop=1;jettySize=auto;html=1;exitX=0;exitY=1;exitDx=0;exitDy=0;endArrow=none;endFill=0;" edge="1" parent="1">
          <mxGeometry relative="1" as="geometry">
            <mxPoint x="242" y="180" as="targetPoint" />
            <mxPoint x="242" y="160" as="sourcePoint" />
          </mxGeometry>
        </mxCell>
        <mxCell id="4ucDftV_e2zZ3TF2XLAY-44" style="edgeStyle=orthogonalEdgeStyle;rounded=0;orthogonalLoop=1;jettySize=auto;html=1;exitX=0;exitY=1;exitDx=0;exitDy=0;endArrow=none;endFill=0;" edge="1" parent="1">
          <mxGeometry relative="1" as="geometry">
            <mxPoint x="281" y="180" as="targetPoint" />
            <mxPoint x="281" y="160" as="sourcePoint" />
          </mxGeometry>
        </mxCell>
        <mxCell id="4ucDftV_e2zZ3TF2XLAY-45" style="edgeStyle=orthogonalEdgeStyle;rounded=0;orthogonalLoop=1;jettySize=auto;html=1;exitX=0;exitY=1;exitDx=0;exitDy=0;endArrow=none;endFill=0;" edge="1" parent="1">
          <mxGeometry relative="1" as="geometry">
            <mxPoint x="321" y="180" as="targetPoint" />
            <mxPoint x="321" y="160" as="sourcePoint" />
          </mxGeometry>
        </mxCell>
        <mxCell id="4ucDftV_e2zZ3TF2XLAY-46" style="edgeStyle=orthogonalEdgeStyle;rounded=0;orthogonalLoop=1;jettySize=auto;html=1;exitX=0;exitY=1;exitDx=0;exitDy=0;endArrow=none;endFill=0;" edge="1" parent="1">
          <mxGeometry relative="1" as="geometry">
            <mxPoint x="362" y="181" as="targetPoint" />
            <mxPoint x="362" y="161" as="sourcePoint" />
          </mxGeometry>
        </mxCell>
        <mxCell id="4ucDftV_e2zZ3TF2XLAY-47" style="edgeStyle=orthogonalEdgeStyle;rounded=0;orthogonalLoop=1;jettySize=auto;html=1;exitX=0;exitY=1;exitDx=0;exitDy=0;endArrow=none;endFill=0;" edge="1" parent="1">
          <mxGeometry relative="1" as="geometry">
            <mxPoint x="401" y="181" as="targetPoint" />
            <mxPoint x="401" y="161" as="sourcePoint" />
          </mxGeometry>
        </mxCell>
      </root>
    </mxGraphModel>
  </diagram>
</mxfile>
